<svg width="20" height="21" viewBox="0 0 20 21" fill="none" xmlns="http://www.w3.org/2000/svg">
<path d="M9.77638 19.3027L9.48758 19.4472L0.999988 15.675V5.76933L9.29689 9.45686C9.36085 9.48528 9.43005 9.49996 9.50003 9.49996C9.57001 9.49996 9.63921 9.48528 9.70316 9.45686L18.0001 5.76933V9.99996C18.0013 10.1317 18.0546 10.2577 18.1482 10.3504C18.2418 10.4431 18.3683 10.4951 18.5001 10.4951C18.6318 10.4951 18.7583 10.4431 18.8519 10.3504C18.9455 10.2577 18.9988 10.1317 19.0001 9.99996V4.99992C19 4.90322 18.972 4.80859 18.9193 4.7275C18.8666 4.64641 18.7916 4.58233 18.7032 4.54303L9.70316 0.543033C9.6392 0.514659 9.57 0.5 9.50003 0.5C9.43005 0.5 9.36086 0.514659 9.29689 0.543033L0.29686 4.54303C0.208502 4.58233 0.133434 4.64641 0.0807461 4.7275C0.0280581 4.80859 1.05339e-05 4.90322 0 4.99992V16C1.41715e-05 16.0967 0.0280649 16.1913 0.0807541 16.2723C0.133443 16.3534 0.20851 16.4175 0.29686 16.4567L9.29689 20.4567C9.36428 20.4867 9.43748 20.5015 9.51123 20.4998C9.58498 20.4982 9.65746 20.4803 9.72346 20.4474L10.2235 20.1974C10.2826 20.1682 10.3354 20.1277 10.3787 20.0781C10.4221 20.0285 10.4553 19.9708 10.4763 19.9083C10.4973 19.8458 10.5058 19.7798 10.5012 19.7141C10.4966 19.6484 10.4791 19.5842 10.4496 19.5252C10.4201 19.4663 10.3793 19.4137 10.3294 19.3706C10.2796 19.3275 10.2217 19.2947 10.1591 19.274C10.0966 19.2533 10.0305 19.2453 9.96478 19.2502C9.89907 19.2552 9.83497 19.273 9.77619 19.3029L9.77638 19.3027ZM9.49982 8.4528L5.96252 6.88056L13.7032 3.44034C13.7121 3.43636 13.7195 3.43054 13.728 3.42628L17.2689 4.99992L9.49982 8.4528ZM9.49982 1.54701L12.5003 2.88051L4.79688 6.30427C4.77704 6.31392 4.75787 6.32488 4.7395 6.33709L1.73124 4.99992L9.49982 1.54701Z" fill="#0160FF"/>
<path d="M15.0001 10.5C14.0112 10.5 13.0445 10.7932 12.2222 11.3426C11.3999 11.892 10.7591 12.6729 10.3806 13.5866C10.0022 14.5002 9.90315 15.5055 10.0961 16.4755C10.289 17.4454 10.7652 18.3363 11.4645 19.0356C12.1637 19.7348 13.0546 20.2111 14.0246 20.404C14.9945 20.5969 15.9998 20.4979 16.9135 20.1195C17.8271 19.741 18.608 19.1002 19.1574 18.2779C19.7068 17.4557 20.0001 16.489 20.0001 15.5C19.9986 14.1744 19.4713 12.9035 18.534 11.9661C17.5966 11.0288 16.3257 10.5015 15.0001 10.5ZM15.0001 19.5C14.209 19.5 13.4356 19.2654 12.7778 18.8259C12.12 18.3864 11.6073 17.7617 11.3046 17.0308C11.0018 16.2999 10.9226 15.4956 11.0769 14.7197C11.2313 13.9437 11.6122 13.231 12.1717 12.6716C12.7311 12.1122 13.4438 11.7312 14.2197 11.5769C14.9956 11.4226 15.7999 11.5018 16.5308 11.8045C17.2617 12.1073 17.8864 12.62 18.326 13.2778C18.7655 13.9356 19.0001 14.7089 19.0001 15.5C18.9989 16.5605 18.577 17.5772 17.8272 18.3271C17.0773 19.077 16.0606 19.4988 15.0001 19.5Z" fill="#0160FF"/>
<path d="M16.6466 14.1465L14.5001 16.293L13.6036 15.3965C13.5574 15.3492 13.5023 15.3115 13.4414 15.2857C13.3805 15.2599 13.3151 15.2464 13.2489 15.246C13.1828 15.2456 13.1172 15.2583 13.0561 15.2835C12.9949 15.3086 12.9393 15.3456 12.8925 15.3924C12.8458 15.4392 12.8087 15.4948 12.7836 15.5559C12.7585 15.6171 12.7457 15.6827 12.7461 15.7488C12.7465 15.815 12.76 15.8804 12.7858 15.9413C12.8117 16.0021 12.8493 16.0573 12.8966 16.1035L14.1467 17.3535C14.1931 17.4 14.2482 17.4368 14.3088 17.462C14.3695 17.4871 14.4345 17.5 14.5002 17.5C14.5658 17.5 14.6308 17.4871 14.6915 17.462C14.7521 17.4368 14.8073 17.4 14.8537 17.3535L17.3537 14.8536C17.4456 14.7594 17.4968 14.6328 17.496 14.5012C17.4953 14.3696 17.4427 14.2436 17.3496 14.1506C17.2566 14.0575 17.1306 14.0049 16.999 14.0042C16.8674 14.0034 16.7408 14.0546 16.6466 14.1465V14.1465Z" fill="#0160FF"/>
</svg>
