<svg width="121" height="32" viewBox="0 0 121 32" fill="none" xmlns="http://www.w3.org/2000/svg">
<g clip-path="url(#clip0_607_28)">
<path d="M37.6725 13.995V11.98H41.1755C41.8162 11.98 42.3742 11.8767 42.8495 11.67C43.3248 11.4633 43.6865 11.1637 43.9345 10.771C44.2032 10.3783 44.3375 9.91333 44.3375 9.376C44.3375 8.54933 44.0482 7.919 43.4695 7.485C42.9115 7.051 42.1468 6.834 41.1755 6.834H38.7885V21.466H41.6405C42.3845 21.466 43.0562 21.3627 43.6555 21.156C44.2548 20.9287 44.7198 20.5773 45.0505 20.102C45.4018 19.6267 45.5775 19.017 45.5775 18.273C45.5775 17.7357 45.4742 17.281 45.2675 16.909C45.0815 16.5163 44.8025 16.196 44.4305 15.948C44.0792 15.6793 43.6658 15.4933 43.1905 15.39C42.7152 15.266 42.1985 15.204 41.6405 15.204H37.6725V12.786H42.0435C43.0975 12.786 44.0998 12.8997 45.0505 13.127C46.0218 13.3543 46.8898 13.716 47.6545 14.212C48.4192 14.6873 49.0185 15.3073 49.4525 16.072C49.9072 16.8367 50.1345 17.7563 50.1345 18.831C50.1345 20.257 49.7935 21.4247 49.1115 22.334C48.4502 23.2433 47.5098 23.915 46.2905 24.349C45.0712 24.783 43.6555 25 42.0435 25H34.3555V3.3H41.5785C43.0252 3.3 44.2962 3.50667 45.3915 3.92C46.4868 4.31267 47.3445 4.912 47.9645 5.718C48.5845 6.524 48.8945 7.547 48.8945 8.787C48.8945 9.88233 48.5845 10.8227 47.9645 11.608C47.3445 12.3933 46.4868 12.9927 45.3915 13.406C44.2962 13.7987 43.0252 13.995 41.5785 13.995H37.6725ZM52.5791 17.87C52.5791 16.382 52.9201 15.08 53.6021 13.964C54.3048 12.848 55.2451 11.98 56.4231 11.36C57.6218 10.74 58.9755 10.43 60.4841 10.43C61.9928 10.43 63.3361 10.74 64.5141 11.36C65.7128 11.98 66.6531 12.848 67.3351 13.964C68.0378 15.08 68.3891 16.382 68.3891 17.87C68.3891 19.3373 68.0378 20.6393 67.3351 21.776C66.6531 22.892 65.7128 23.76 64.5141 24.38C63.3361 25 61.9928 25.31 60.4841 25.31C58.9755 25.31 57.6218 25 56.4231 24.38C55.2451 23.76 54.3048 22.892 53.6021 21.776C52.9201 20.6393 52.5791 19.3373 52.5791 17.87ZM56.6711 17.87C56.6711 18.676 56.8365 19.389 57.1671 20.009C57.5185 20.6083 57.9835 21.0837 58.5621 21.435C59.1408 21.7657 59.7815 21.931 60.4841 21.931C61.1868 21.931 61.8275 21.7657 62.4061 21.435C62.9848 21.0837 63.4395 20.6083 63.7701 20.009C64.1215 19.389 64.2971 18.676 64.2971 17.87C64.2971 17.064 64.1215 16.351 63.7701 15.731C63.4395 15.111 62.9848 14.6357 62.4061 14.305C61.8275 13.9743 61.1868 13.809 60.4841 13.809C59.7815 13.809 59.1408 13.9743 58.5621 14.305C57.9835 14.6357 57.5185 15.111 57.1671 15.731C56.8365 16.351 56.6711 17.064 56.6711 17.87ZM71.3085 0.820002H75.1835V25H71.3085V0.820002ZM80.4225 10.74H85.2275L79.0895 16.63L85.8475 25H81.0735L74.2845 16.63L80.4225 10.74ZM87.775 5.222C87.775 4.56067 88.0127 4.02333 88.488 3.61C88.9634 3.176 89.5317 2.959 90.193 2.959C90.8544 2.959 91.4124 3.176 91.867 3.61C92.3424 4.02333 92.58 4.56067 92.58 5.222C92.58 5.86267 92.3424 6.4 91.867 6.834C91.4124 7.268 90.8544 7.485 90.193 7.485C89.5317 7.485 88.9634 7.268 88.488 6.834C88.0127 6.4 87.775 5.86267 87.775 5.222ZM88.209 10.74H92.115V25H88.209V10.74ZM95.1681 10.74H104.096V14.119H95.1681V10.74ZM103.662 4.85C103.455 4.54 103.217 4.33333 102.949 4.23C102.701 4.106 102.453 4.044 102.205 4.044C101.895 4.044 101.626 4.12667 101.399 4.292C101.192 4.43667 101.027 4.68467 100.903 5.036C100.779 5.38733 100.717 5.83167 100.717 6.369V25H96.8421V5.47C96.8421 4.37467 97.0281 3.455 97.4001 2.711C97.7721 1.967 98.3301 1.39867 99.0741 1.006C99.8181 0.592669 100.727 0.386002 101.802 0.386002C102.442 0.386002 102.99 0.468669 103.445 0.634003C103.899 0.778669 104.282 0.964669 104.592 1.192C104.922 1.41933 105.181 1.63633 105.367 1.843L103.662 4.85ZM120.066 10.74L110.766 31.82H106.643L110.239 23.574L104.318 10.74H108.782L113.37 22.086L111.386 22.024L115.881 10.74H120.066Z" fill="white"/>
<path d="M5.01607 0C2.25452 0 0 2.25452 0 5.01607V23.0739C0 25.8355 2.25452 28.09 5.01607 28.09H23.0739C23.628 28.0899 24.0771 27.6408 24.0771 27.0868V5.01607C24.0771 4.46204 23.628 4.01292 23.0739 4.01286H20.0643V1.00321C20.0642 0.449179 19.6151 6.01929e-05 19.0611 0H5.01607ZM20.0643 6.01929H22.0707V26.0836H5.01607C3.33137 26.0836 2.00643 24.7586 2.00643 23.0739C2.00643 21.3892 3.33137 20.0643 5.01607 20.0643H19.0611C19.6151 20.0642 20.0642 19.6151 20.0643 19.0611V6.01929Z" fill="white"/>
<path d="M19.0344 22.0706H5.01751C3.66083 22.0514 3.66083 24.0962 5.01751 24.077H19.0344C19.6 24.085 20.0602 23.6237 20.0514 23.0643C20.0424 22.5048 19.5877 22.063 19.0344 22.0706Z" fill="white"/>
</g>
<defs>
<clipPath id="clip0_607_28">
<rect width="121" height="32" fill="white"/>
</clipPath>
</defs>
</svg>
